<svg width="41" height="41" viewBox="0 0 41 41" fill="none" xmlns="http://www.w3.org/2000/svg">
<path d="M20.3476 40.4642C31.3121 40.4642 40.2006 31.5757 40.2006 20.6111C40.2006 9.64657 31.3121 0.758057 20.3476 0.758057C9.38303 0.758057 0.494507 9.64657 0.494507 20.6111C0.494507 31.5757 9.38303 40.4642 20.3476 40.4642Z" fill="#F3BA2F"/>
<path d="M15.5282 18.6307L20.3476 13.8114L25.1694 18.6332L27.9736 15.8289L20.3476 8.20288L12.724 15.8265L15.5282 18.6307ZM7.9394 20.611L10.7436 17.8068L13.5479 20.611L10.7436 23.4153L7.9394 20.611ZM15.5282 22.5914L20.3476 27.4107L25.1694 22.5889L27.9736 25.3919L20.3476 33.0192L12.724 25.3956L12.7203 25.3919L15.5282 22.5914ZM27.1472 20.611L29.9515 17.8068L32.7557 20.611L29.9515 23.4153L27.1472 20.611ZM23.1915 20.6086H23.194V20.611L20.3476 23.4575L17.5049 20.616L17.4999 20.611L17.5049 20.6073L18.0024 20.1085L18.2444 19.8666L20.3476 17.7646L23.1928 20.6098L23.1915 20.6086Z" fill="white"/>
</svg>
