<svg width="41" height="41" viewBox="0 0 41 41" fill="none" xmlns="http://www.w3.org/2000/svg">
<path d="M19.766 26.0285C21.6041 26.0219 25.6227 26.007 25.5764 23.4509C25.5317 20.8369 21.6719 20.9941 19.7908 21.0719C19.5807 21.0801 19.3938 21.0884 19.2416 21.0901L19.3276 26.0318C19.4517 26.0285 19.6006 26.0285 19.766 26.0285ZM19.5708 18.8268C21.1045 18.8252 24.4514 18.8219 24.4116 16.4974C24.3686 14.12 21.1541 14.2606 19.584 14.3301C19.407 14.3384 19.2532 14.345 19.1241 14.3466L19.2019 18.8285L19.5708 18.8268Z" fill="#F59300"/>
<path fill-rule="evenodd" clip-rule="evenodd" d="M15.9792 39.8694C26.6171 42.5215 37.3907 36.0477 40.0427 25.4131C42.6948 14.7768 36.2194 4.00321 25.5814 1.35283C14.9501 -1.30086 4.17652 5.17454 1.52613 15.8125C-1.1259 26.4471 5.34785 37.2207 15.9808 39.8711L15.9792 39.8694ZM23.0634 11.7112C25.9653 11.9163 28.2748 12.7667 28.5776 15.4204C28.8026 17.3627 28.0085 18.5456 26.7197 19.2305C28.8704 19.707 30.2353 20.9561 30.0202 23.8149C29.7539 27.3636 27.1283 28.3613 23.3595 28.6425L23.4224 32.365L21.179 32.4063L21.1145 28.7335C20.5338 28.7434 19.9382 28.7501 19.3211 28.7467L19.3873 32.4361L17.1439 32.4758L17.0777 28.7467L16.4441 28.7517C16.1231 28.7534 15.7988 28.755 15.4746 28.7616L12.5529 28.8113L12.9516 26.1245C12.9516 26.1245 14.6126 26.1212 14.5828 26.0964C15.2181 26.0831 15.3786 25.6249 15.4133 25.337L15.3124 19.4522L15.4729 19.4489H15.549C15.4699 19.4398 15.3904 19.436 15.3108 19.4373L15.238 15.2351C15.1437 14.7818 14.8393 14.259 13.931 14.2755C13.9558 14.2424 12.2997 14.3036 12.2997 14.3036L12.2567 11.908L15.3538 11.8551V11.8667C15.8187 11.8584 16.2968 11.8419 16.7816 11.8237L16.7187 8.13596L18.9621 8.09791L19.025 11.7112C19.6239 11.6897 20.2261 11.6665 20.8167 11.6566L20.7538 8.06647L22.9989 8.02677L23.0634 11.7145V11.7112Z" fill="#F59300"/>
</svg>
