<svg width="31" height="31" viewBox="0 0 31 31" fill="none" xmlns="http://www.w3.org/2000/svg">
<path d="M30.4709 21.8538C30.4709 27.2768 27.2379 30.5098 21.8149 30.5098H20.042C19.2226 30.5098 18.5521 29.8394 18.5521 29.02V20.4235C18.5521 20.0213 18.8799 19.6786 19.2822 19.6786L21.9043 19.6339C22.1129 19.619 22.2916 19.47 22.3363 19.2615L22.8578 16.4159C22.8679 16.3514 22.8639 16.2854 22.8461 16.2226C22.8283 16.1598 22.7971 16.1016 22.7546 16.0521C22.7121 16.0025 22.6593 15.9627 22.6 15.9355C22.5407 15.9083 22.4761 15.8943 22.4108 15.8944L19.2375 15.9391C18.8203 15.9391 18.4925 15.6113 18.4776 15.2091L18.418 11.559C18.418 11.3206 18.6117 11.112 18.865 11.112L22.4406 11.0524C22.6939 11.0524 22.8876 10.8587 22.8876 10.6055L22.828 7.02984C22.828 6.77656 22.6343 6.58288 22.381 6.58288L18.3584 6.64248C17.7712 6.6514 17.1916 6.77611 16.6526 7.00946C16.1137 7.24281 15.6262 7.58022 15.2179 8.00235C14.8096 8.42448 14.4886 8.92302 14.2733 9.46942C14.0581 10.0158 13.9528 10.5993 13.9634 11.1865L14.0379 15.2836C14.0528 15.7007 13.725 16.0285 13.3079 16.0434L11.5201 16.0732C11.2668 16.0732 11.0731 16.2669 11.0731 16.5202L11.1178 19.3509C11.1178 19.6041 11.3115 19.7978 11.5648 19.7978L13.3526 19.768C13.7697 19.768 14.0975 20.0958 14.1124 20.498L14.2465 28.9902C14.2614 29.8245 13.5909 30.5098 12.7566 30.5098H9.32998C3.90695 30.5098 0.673981 27.2768 0.673981 21.8389V9.36889C0.673981 3.94586 3.90695 0.712891 9.32998 0.712891H21.8149C27.2379 0.712891 30.4709 3.94586 30.4709 9.36889V21.8538Z" fill="white"/>
</svg>
