<svg width="31" height="31" viewBox="0 0 31 31" fill="none" xmlns="http://www.w3.org/2000/svg">
<path d="M22.0328 0.712891H9.54791C4.12487 0.712891 0.891907 3.94586 0.891907 9.36889V21.8389C0.891907 27.2768 4.12487 30.5098 9.54791 30.5098H22.0179C27.441 30.5098 30.6739 27.2768 30.6739 21.8538V9.36889C30.6888 3.94586 27.4559 0.712891 22.0328 0.712891ZM15.7904 21.3919C12.6021 21.3919 10.0098 18.7996 10.0098 15.6113C10.0098 12.4231 12.6021 9.83075 15.7904 9.83075C18.9786 9.83075 21.571 12.4231 21.571 15.6113C21.571 18.7996 18.9786 21.3919 15.7904 21.3919ZM24.6102 7.98334C24.5358 8.16212 24.4315 8.326 24.2974 8.47499C24.1484 8.60907 23.9845 8.71336 23.8057 8.78785C23.5346 8.90294 23.2353 8.93465 22.9461 8.87892C22.6568 8.8232 22.3908 8.68257 22.1818 8.47499C22.0477 8.326 21.9434 8.16212 21.8689 7.98334C21.7924 7.80428 21.7519 7.61191 21.7497 7.4172C21.7497 7.22352 21.7944 7.02984 21.8689 6.85105C21.9434 6.65737 22.0477 6.50839 22.1818 6.35941C22.5245 6.01674 23.0459 5.85286 23.5227 5.95715C23.627 5.97205 23.7163 6.00184 23.8057 6.04654C23.8951 6.07633 23.9845 6.12103 24.0739 6.18062C24.1484 6.22532 24.2229 6.29981 24.2974 6.35941C24.4315 6.50839 24.5358 6.65737 24.6102 6.85105C24.6847 7.02984 24.7294 7.22352 24.7294 7.4172C24.7294 7.61088 24.6847 7.80456 24.6102 7.98334Z" fill="white"/>
</svg>
