<svg width="252" height="71" viewBox="0 0 252 71" fill="none" xmlns="http://www.w3.org/2000/svg">
<rect x="0.891907" width="236.563" height="70.2129" rx="30.2456" fill="#D8F1FF"/>
<path d="M95.2894 0H220.863C237.567 0 251.108 13.5414 251.108 30.2456V39.9673C251.108 56.6715 237.567 70.2129 220.862 70.2129H95.2894V0Z" fill="white"/>
<path fill-rule="evenodd" clip-rule="evenodd" d="M39.1418 49.5078L52.3771 45.5475L50.487 56.2412L60.0722 61.7837L62.7023 42.4576L88.9512 34.6032L77.6245 29.8039L63.8729 33.8576L65.2509 23.7314L56.9167 19.8643L53.9251 36.7897L29.4043 44.0172L39.1418 49.5078Z" fill="#333333" fill-opacity="0.101961"/>
<path fill-rule="evenodd" clip-rule="evenodd" d="M24.9062 26.7764L65.2871 47.844L65.0881 52.2087L24.9152 31.0267L24.9062 26.7764Z" fill="#0094D6"/>
<path fill-rule="evenodd" clip-rule="evenodd" d="M29.5615 8.42822L40.1293 14.2304L50.3341 35.0021L50.6443 20.6011L60.0722 26.0398V61.784L50.487 56.2412L39.4014 33.1381L39.1421 49.5078L29.4046 44.0169L29.5615 8.42822Z" fill="#02A4FF"/>
<path fill-rule="evenodd" clip-rule="evenodd" d="M24.9062 20.4468L65.2871 41.5144L65.0881 45.8791L24.9152 24.6971L24.9062 20.4468Z" fill="#0094D6"/>
<path d="M140.054 23.5371H133.861L127.993 31.1611L122.125 23.5371H115.933L124.897 35.1719L115.933 46.7736H122.125L127.993 39.1826L133.861 46.7736H140.054L131.089 35.1719L140.054 23.5371Z" fill="#02A4FF"/>
<path d="M162.698 46.7736L148.514 33.2163V46.7736H143.474V23.5371H145.058L158.99 36.531V23.5371H164.03V46.7736H162.698Z" fill="#02A4FF"/>
<path d="M180.467 30.434L180.107 31.91C178.667 30.6861 176.795 29.966 174.779 29.966C170.207 29.966 166.535 33.6019 166.535 38.174C166.535 42.7099 170.207 46.382 174.779 46.382C176.795 46.382 178.667 45.662 180.107 44.438V45.9501H183.923V30.434H180.467ZM178.199 41.1621C177.443 41.9541 176.435 42.3861 175.355 42.3861C174.275 42.3861 173.267 41.9541 172.475 41.1621C171.719 40.3342 171.287 39.2901 171.287 38.174C171.287 37.058 171.719 35.9779 172.475 35.1859C173.267 34.3939 174.275 33.962 175.355 33.962C176.435 33.962 177.443 34.3939 178.199 35.1859C178.991 35.9779 179.387 37.058 179.387 38.174C179.387 39.2901 178.991 40.3342 178.199 41.1621ZM187.343 26.6962V23.4737L191.987 23.4395V26.6965H187.343V26.6962ZM187.343 45.9504V30.4343H191.987V45.9504H187.343ZM198.359 30.4343H194.867V45.9504H199.367V37.3823C199.835 34.8981 202.499 33.3144 205.127 34.4662L206.891 30.4702C206.063 30.1821 205.164 30.0383 204.263 30.0383C202.211 30.0383 200.159 30.6864 199.007 32.1984L198.36 30.4343H198.359ZM221.003 30.4343L220.643 31.9103C219.203 30.6864 217.331 29.9663 215.315 29.9663C210.743 29.9663 207.071 33.6022 207.071 38.1743C207.071 42.7102 210.743 46.3823 215.315 46.3823C217.331 46.3823 219.203 45.6623 220.643 44.4383V45.9504H224.459V30.4343H221.003ZM218.735 41.1624C217.979 41.9544 216.971 42.3864 215.891 42.3864C214.811 42.3864 213.803 41.9544 213.011 41.1624C212.255 40.3345 211.823 39.2904 211.823 38.1743C211.823 37.0583 212.255 35.9782 213.011 35.1862C213.803 34.3942 214.811 33.9622 215.891 33.9622C216.971 33.9622 217.979 34.3942 218.735 35.1862C219.527 35.9782 219.923 37.0583 219.923 38.1743C219.923 39.2904 219.527 40.3345 218.735 41.1624Z" fill="#02A4FF"/>
</svg>
