<svg width="28" height="30" viewBox="0 0 28 30" fill="none" xmlns="http://www.w3.org/2000/svg">
<path d="M11.464 7.10017C11.6274 7.02664 11.8061 6.98853 11.9871 6.98863H19.5777C20.4766 6.98863 21.315 7.04391 22.0811 7.16044C22.2955 7.19274 22.5087 7.23131 22.7206 7.27608C23.0209 7.3387 23.3177 7.41534 23.6099 7.50571C23.9866 7.62458 24.3373 7.76302 24.6597 7.92514C25.0397 5.63416 24.657 4.07619 23.3462 2.66487C21.9028 1.111 19.2959 0.444824 15.9599 0.444824H6.27694C5.59519 0.444824 5.01522 0.913861 4.90837 1.54981L0.876917 25.7117C0.796785 26.189 1.1872 26.6199 1.69739 26.6199H7.67563L10.7901 7.95528C10.8207 7.77182 10.8981 7.59814 11.0155 7.44918C11.1328 7.30023 11.2868 7.18045 11.464 7.10017Z" fill="#27346A"/>
<path d="M24.5605 8.46091C23.2842 14.656 18.915 16.7988 13.3349 16.7988H10.4936C9.81196 16.7988 9.23623 17.2679 9.13032 17.904L7.26274 29.0922C7.19296 29.5092 7.5342 29.8871 7.98062 29.8871H13.0194C13.3081 29.887 13.5872 29.7896 13.8066 29.6124C14.0261 29.4352 14.1714 29.1899 14.2165 28.9204L14.2656 28.6778L15.2153 22.9899L15.2765 22.6755C15.3216 22.4061 15.4669 22.1608 15.6863 21.9836C15.9058 21.8064 16.1849 21.709 16.4735 21.7089H17.2276C22.1087 21.7089 25.9307 19.8349 27.0476 14.415C27.5138 12.1501 27.2726 10.2591 26.0393 8.93083C25.6653 8.52851 25.2008 8.19626 24.6596 7.92505C24.6303 8.10018 24.5985 8.27766 24.5605 8.46091Z" fill="#2790C3"/>
<path d="M23.3239 7.42161C23.1249 7.36669 22.924 7.31807 22.7215 7.27583C22.5096 7.23179 22.2963 7.19348 22.082 7.16097C21.3151 7.04366 20.4773 6.98828 19.5776 6.98828H11.988C11.8068 6.9879 11.628 7.02633 11.4648 7.1007C11.2874 7.18074 11.1333 7.30044 11.0159 7.44944C10.8984 7.59844 10.8212 7.77224 10.7908 7.95581L9.17763 17.622L9.13104 17.9038C9.23716 17.2678 9.81279 16.7986 10.4945 16.7986H13.3358C18.9159 16.7986 23.285 14.6567 24.5614 8.46075C24.5993 8.2775 24.6312 8.09992 24.6605 7.92489C24.3373 7.76365 23.9875 7.62433 23.6107 7.50624C23.5157 7.47646 23.42 7.44824 23.3239 7.42161Z" fill="#27346A"/>
</svg>
