<svg width="32" height="36" viewBox="0 0 32 36" fill="none" xmlns="http://www.w3.org/2000/svg">
<path d="M31.3371 16.4678V8.74784C31.3371 7.30584 30.2468 5.67041 28.8927 5.12526L19.0977 1.11581C16.8935 0.218885 14.426 0.218885 12.2218 1.11581L2.42678 5.12526C1.09029 5.67041 0 7.30584 0 8.74784V16.4678C0 25.067 6.2428 33.1211 14.7717 35.4776C15.352 35.6358 15.9851 35.6358 16.5654 35.4776C25.0943 33.1211 31.3371 25.067 31.3371 16.4678ZM16.9874 19.5452V24.1702C16.9874 24.8912 16.3895 25.4891 15.6685 25.4891C14.9475 25.4891 14.3496 24.8912 14.3496 24.1702V19.5452C13.461 19.2667 12.684 18.7128 12.1308 17.9636C11.5776 17.2144 11.2769 16.3088 11.2722 15.3775C11.2722 14.2115 11.7354 13.0933 12.5599 12.2688C13.3843 11.4444 14.5026 10.9812 15.6685 10.9812C16.8345 10.9812 17.9527 11.4444 18.7772 12.2688C19.6017 13.0933 20.0649 14.2115 20.0649 15.3775C20.0649 17.3471 18.7636 18.9825 16.9874 19.5452Z" fill="#0094E8"/>
</svg>
