<svg width="25" height="24" viewBox="0 0 25 24" fill="none" xmlns="http://www.w3.org/2000/svg">
<rect width="25" height="24" fill="#1E1E1E"/>
<g id="Landing Page" clip-path="url(#clip0_0_1)">
<rect width="1440" height="6120" transform="translate(-1238 -5817)" fill="#F0FAFF"/>
<g id="Footer">
<path d="M-1238 -37C-1238 -77.5408 -1238 -97.8112 -1225.41 -110.406C-1212.81 -123 -1192.54 -123 -1152 -123H116C156.541 -123 176.811 -123 189.406 -110.406C202 -97.8112 202 -77.5408 202 -37V303H-1238V-37Z" fill="#0094E8"/>
<g id="Frame 58">
<g id="Frame 55">
<g id="Frame 46">
<rect x="-254.892" y="-13" width="296" height="50" rx="10" fill="#EEEEEE"/>
<g id="Iconsax/Bold/send2">
<path id="Vector" d="M16.248 2.96004L7.21803 5.96004C1.14803 7.99004 1.14803 11.3 7.21803 13.32L9.89803 14.21L10.788 16.89C12.808 22.96 16.128 22.96 18.148 16.89L21.158 7.87004C22.498 3.82004 20.298 1.61004 16.248 2.96004ZM16.568 8.34004L12.768 12.16C12.618 12.31 12.428 12.38 12.238 12.38C12.048 12.38 11.858 12.31 11.708 12.16C11.5685 12.0189 11.4903 11.8285 11.4903 11.63C11.4903 11.4316 11.5685 11.2412 11.708 11.1L15.508 7.28004C15.798 6.99004 16.278 6.99004 16.568 7.28004C16.858 7.57004 16.858 8.05004 16.568 8.34004Z" fill="#02A4FF"/>
</g>
</g>
</g>
</g>
</g>
</g>
<defs>
<clipPath id="clip0_0_1">
<rect width="1440" height="6120" fill="white" transform="translate(-1238 -5817)"/>
</clipPath>
</defs>
</svg>
