<svg width="36" height="35" viewBox="0 0 36 35" fill="none" xmlns="http://www.w3.org/2000/svg">
<path d="M11.3734 28.9755V11.1088C11.3734 10.4054 11.5844 9.71953 11.9713 9.13921L16.7721 1.99956C17.5283 0.856516 19.4099 0.0475903 21.0102 0.645492C22.7335 1.22581 23.8766 3.1602 23.5073 4.88356L22.5928 10.634C22.5225 11.1615 22.6632 11.6363 22.9621 12.0056C23.2611 12.3397 23.7007 12.5508 24.1755 12.5508H31.4031C32.7923 12.5508 33.9881 13.1135 34.6915 14.0983C35.3598 15.0479 35.4829 16.2789 35.0433 17.5274L30.7173 30.6988C30.1721 32.8794 27.7981 34.6555 25.4417 34.6555H18.5834C17.4052 34.6555 15.7521 34.2511 14.996 33.4949L12.745 31.754C11.8834 31.1033 11.3734 30.0658 11.3734 28.9755ZM5.78125 7.67787H3.96996C1.24423 7.67787 0.136353 8.73299 0.136353 11.3356V29.0265C0.136353 31.6291 1.24423 32.6842 3.96996 32.6842H5.78125C8.50698 32.6842 9.61485 31.6291 9.61485 29.0265V11.3356C9.61485 8.73299 8.50698 7.67787 5.78125 7.67787Z" fill="#02A4FF"/>
</svg>
