<svg width="32" height="32" viewBox="0 0 32 32" fill="none" xmlns="http://www.w3.org/2000/svg">
<path d="M24.4326 0.212891H7.80609C3.75497 0.212891 0.470886 3.49697 0.470886 7.5481V24.1746C0.470886 28.2257 3.75497 31.5098 7.80609 31.5098H24.4326C28.4837 31.5098 31.7678 28.2257 31.7678 24.1746V7.5481C31.7678 3.49697 28.4837 0.212891 24.4326 0.212891Z" fill="#0094E8"/>
<path d="M24.4326 0.212891H7.80609C3.75497 0.212891 0.470886 3.49697 0.470886 7.5481V24.1746C0.470886 28.2257 3.75497 31.5098 7.80609 31.5098H24.4326C28.4837 31.5098 31.7678 28.2257 31.7678 24.1746V7.5481C31.7678 3.49697 28.4837 0.212891 24.4326 0.212891Z" fill="white"/>
<path d="M24.8692 11.3884C24.8827 11.5824 24.8827 11.7764 24.8827 11.9723C24.8827 17.9379 20.3412 24.818 12.0369 24.818V24.8144C9.58368 24.8179 7.18126 24.1153 5.11652 22.7905C5.47325 22.8334 5.8317 22.8548 6.19112 22.8556C8.2244 22.8572 10.1992 22.1752 11.7982 20.9193C10.8561 20.9014 9.94309 20.5897 9.18687 20.0275C8.43065 19.4654 7.86899 18.681 7.58041 17.7841C8.25681 17.9145 8.95412 17.8879 9.61862 17.7063C7.51244 17.2807 5.99711 15.4302 5.99711 13.281V13.2238C6.62499 13.5735 7.32769 13.7673 8.04607 13.7888C6.06239 12.463 5.45088 9.8239 6.64872 7.76051C7.78217 9.15529 9.19635 10.296 10.7994 11.1087C12.4025 11.9213 14.1585 12.3876 15.9535 12.4773C15.7746 11.7069 15.801 10.903 16.0302 10.146C16.2594 9.38907 16.6833 8.70554 17.2596 8.16382C19.078 6.45447 21.9379 6.54213 23.6472 8.35955C24.6582 8.15993 25.6278 7.78928 26.5142 7.26355C26.1771 8.30889 25.4718 9.19621 24.5295 9.76045C25.4245 9.65501 26.2985 9.41544 27.1221 9.04979C26.5163 9.95715 25.7533 10.749 24.8692 11.3884Z" fill="#0094E8"/>
</svg>
