<svg width="40" height="41" viewBox="0 0 40 41" fill="none" xmlns="http://www.w3.org/2000/svg">
<path d="M20.0537 40.4642C31.0182 40.4642 39.9067 31.5757 39.9067 20.6111C39.9067 9.64657 31.0182 0.758057 20.0537 0.758057C9.08914 0.758057 0.200623 9.64657 0.200623 20.6111C0.200623 31.5757 9.08914 40.4642 20.0537 40.4642Z" fill="#3E73C4"/>
<path d="M25.0442 23.2468C25.0442 20.6113 23.456 19.708 20.2795 19.3308C18.0113 19.0293 17.5584 18.4275 17.5584 17.3728C17.5584 16.3181 18.3153 15.6406 19.8266 15.6406C21.1878 15.6406 21.9447 16.0923 22.3219 17.2227C22.3612 17.332 22.4331 17.4266 22.5278 17.4938C22.6225 17.561 22.7356 17.5976 22.8517 17.5986H24.0615C24.1314 17.6005 24.2009 17.5882 24.2659 17.5623C24.3308 17.5365 24.3899 17.4978 24.4394 17.4485C24.489 17.3992 24.528 17.3403 24.5541 17.2755C24.5802 17.2106 24.5929 17.1412 24.5913 17.0713V16.9968C24.4435 16.179 24.0297 15.4329 23.4142 14.8744C22.7988 14.316 22.0161 13.9764 21.1878 13.9084V12.1018C21.1878 11.8003 20.9607 11.5745 20.5835 11.4988H19.4482C19.1466 11.4988 18.9196 11.7246 18.8439 12.1018V13.834C16.5744 14.1343 15.1388 15.6406 15.1388 17.5242C15.1388 20.0083 16.6501 20.9873 19.8266 21.3645C21.9447 21.7405 22.6247 22.1934 22.6247 23.3982C22.6247 24.6018 21.5662 25.4307 20.1294 25.4307C18.1627 25.4307 17.4827 24.603 17.2556 23.4727C17.1812 23.1724 16.9529 23.021 16.7258 23.021H15.4403C15.3705 23.0193 15.3012 23.0318 15.2363 23.0577C15.1715 23.0835 15.1126 23.1223 15.0632 23.1716C15.0138 23.2209 14.9749 23.2797 14.9489 23.3445C14.9228 23.4092 14.9102 23.4786 14.9117 23.5483V23.6228C15.2133 25.5064 16.4243 26.8613 18.9196 27.2385V29.0464C18.9196 29.3467 19.1466 29.5738 19.5238 29.6482H20.6592C20.9607 29.6482 21.1878 29.4224 21.2635 29.0464V27.2373C23.5329 26.8613 25.0442 25.2793 25.0442 23.2456V23.2468Z" fill="white"/>
<path d="M16.1972 31.1543C10.2984 29.0449 7.27327 22.4934 9.46704 16.6951C10.6011 13.531 13.0964 11.1226 16.1972 9.99218C16.5 9.84205 16.6501 9.61622 16.6501 9.23901V8.18432C16.6501 7.88404 16.5 7.65821 16.1972 7.58252C16.1215 7.58252 15.9702 7.58252 15.8945 7.65697C14.1926 8.18844 12.6127 9.05131 11.2456 10.1959C9.87863 11.3405 8.75152 12.7442 7.92922 14.3261C7.10693 15.9081 6.60568 17.6371 6.45434 19.4136C6.30301 21.1901 6.50458 22.979 7.04744 24.6772C8.40738 28.896 11.6596 32.1346 15.8945 33.4895C16.1972 33.6397 16.5 33.4895 16.5744 33.188C16.6501 33.1136 16.6501 33.0366 16.6501 32.8865V31.8318C16.6501 31.606 16.4243 31.3057 16.1972 31.1543ZM24.2129 7.65821C23.9101 7.50683 23.6074 7.65821 23.5329 7.95849C23.4572 8.03418 23.4572 8.10987 23.4572 8.26001V9.3147C23.4572 9.61622 23.6831 9.91649 23.9101 10.0679C29.809 12.1773 32.8341 18.7288 30.6403 24.5271C29.5062 27.6912 27.0109 30.0996 23.9101 31.23C23.6074 31.3801 23.4572 31.606 23.4572 31.9832V33.0379C23.4572 33.3381 23.6074 33.564 23.9101 33.6397C23.9858 33.6397 24.1372 33.6397 24.2129 33.5652C25.9148 33.0337 27.4947 32.1709 28.8617 31.0263C30.2287 29.8817 31.3558 28.478 32.1781 26.896C33.0004 25.3141 33.5017 23.5851 33.653 21.8086C33.8044 20.0321 33.6028 18.2432 33.0599 16.5449C31.7 12.2517 28.3721 9.01318 24.2129 7.65821Z" fill="white"/>
</svg>
