<svg width="41" height="41" viewBox="0 0 41 41" fill="none" xmlns="http://www.w3.org/2000/svg">
<path d="M20.7598 40.4642C31.7243 40.4642 40.6129 31.5757 40.6129 20.6111C40.6129 9.64657 31.7243 0.758057 20.7598 0.758057C9.79526 0.758057 0.906738 9.64657 0.906738 20.6111C0.906738 31.5757 9.79526 40.4642 20.7598 40.4642Z" fill="#26A17B"/>
<path fill-rule="evenodd" clip-rule="evenodd" d="M23.1447 22.3271V22.3246C23.0082 22.3346 22.3046 22.3768 20.735 22.3768C19.4818 22.3768 18.5995 22.3395 18.2893 22.3246V22.3284C13.465 22.1162 9.86419 21.2762 9.86419 20.2711C9.86419 19.2673 13.465 18.4272 18.2893 18.2113V21.4921C18.6045 21.5144 19.5078 21.5677 20.7561 21.5677C22.2537 21.5677 23.0044 21.5057 23.1447 21.4933V18.2138C27.959 18.4285 31.5512 19.2685 31.5512 20.2711C31.5512 21.2762 27.959 22.1137 23.1447 22.3271ZM23.1447 17.8726V14.9368H29.8624V10.46H11.5716V14.9368H18.2893V17.8714C12.8297 18.122 8.72388 19.204 8.72388 20.4994C8.72388 21.7948 12.8297 22.8756 18.2893 23.1275V32.5353H23.1447V23.125C28.5956 22.8743 32.6915 21.7936 32.6915 20.4994C32.6915 19.2052 28.5956 18.1245 23.1447 17.8726Z" fill="white"/>
</svg>
