<svg width="36" height="36" viewBox="0 0 36 36" fill="none" xmlns="http://www.w3.org/2000/svg">
<path d="M25.3324 0.443115H10.5959C4.1948 0.443115 0.378784 4.25913 0.378784 10.6602V25.3791C0.378784 31.7978 4.1948 35.6138 10.5959 35.6138H25.3148C31.7159 35.6138 35.5319 31.7978 35.5319 25.3967V10.6602C35.5495 4.25913 31.7334 0.443115 25.3324 0.443115ZM11.8093 8.1455C13.6205 8.1455 15.1153 9.62266 15.1153 11.4515C15.1153 13.2804 13.6381 14.7576 11.8093 14.7576C9.98038 14.7576 8.50321 13.2452 8.50321 11.434C8.50321 9.62266 9.99797 8.1455 11.8093 8.1455ZM17.9641 30.4789C13.2337 30.4789 9.38248 26.6277 9.38248 21.8972C9.38248 20.6663 10.3848 19.6463 11.6158 19.6463H24.2773C25.5082 19.6463 26.5106 20.6487 26.5106 21.8972C26.5458 26.6277 22.6946 30.4789 17.9641 30.4789ZM24.119 14.7224C22.3077 14.7224 20.813 13.2452 20.813 11.4164C20.813 9.58749 22.2901 8.11032 24.119 8.11032C25.9479 8.11032 27.425 9.58749 27.425 11.4164C27.425 13.2452 25.9303 14.7224 24.119 14.7224Z" fill="#02A4FF"/>
</svg>
