<svg width="25" height="26" viewBox="0 0 25 26" fill="none" xmlns="http://www.w3.org/2000/svg">
<path d="M23.1257 6.29938C19.3919 0.51106 11.7456 -1.204 5.83224 2.38691C0.0617799 5.97781 -1.7962 13.8028 1.93762 19.5732L2.24133 20.0377L0.99077 24.7184L5.67145 23.4678L6.13594 23.7715C8.15471 24.8613 10.3521 25.4866 12.5317 25.4866C14.872 25.4866 17.2124 24.8613 19.2311 23.6107C25.0016 19.8591 26.7166 12.1949 23.1257 6.26365V6.29938ZM19.8564 18.3405C19.2311 19.2695 18.4451 19.8948 17.3553 20.0556C16.73 20.0556 15.9439 20.3593 12.8354 19.1266C10.1913 17.876 7.99392 15.8394 6.43965 13.4991C5.51066 12.4093 5.0283 10.9979 4.88538 9.58658C4.88538 8.33601 5.34988 7.24624 6.13594 6.46017C6.43965 6.15646 6.76123 5.99567 7.06493 5.99567H7.851C8.15471 5.99567 8.47628 5.99567 8.63707 6.62095C8.94078 7.40702 9.72685 9.28287 9.72685 9.44366C9.88763 9.60444 9.81617 10.8014 9.10156 11.4803C8.70853 11.9269 8.63707 11.9448 8.79786 12.2664C9.42314 13.1953 10.2092 14.1422 10.9774 14.9283C11.9064 15.7143 12.8533 16.3396 13.943 16.8041C14.2467 16.9649 14.5683 16.9649 14.7291 16.6433C14.8899 16.3396 15.6581 15.5535 15.9797 15.232C16.2834 14.9283 16.4442 14.9283 16.7657 15.0712L19.2669 16.3218C19.5706 16.4825 19.8921 16.6255 20.0529 16.7862C20.2137 17.2507 20.2137 17.876 19.8921 18.3405H19.8564Z" fill="white"/>
</svg>
